<svg xmlns="http://www.w3.org/2000/svg" width="640" height="640">
    <path d="M322 19c3.98 3.659 6.675 7.464 9.313 12.188 4.28 7.462 8.724 14.809 13.25 22.125A3724.866 3724.866 0 0 1 361.5 81a4590.213 4590.213 0 0 0 18.691 30.563c4.872 7.904 9.707 15.83 14.527 23.766 4.339 7.136 8.711 14.25 13.094 21.358a4423.28 4423.28 0 0 1 17.76 29.082A3794.01 3794.01 0 0 0 441 211c5.9 9.565 11.75 19.16 17.573 28.77A3752.001 3752.001 0 0 0 474 265a5306.964 5306.964 0 0 1 23.198 38.026c1.526 2.518 3.057 5.032 4.591 7.544A624.593 624.593 0 0 1 508 321l1.008 1.721C523.778 348.225 533.16 379.483 534 409l.078 2.338c.662 22.426-2.055 44.057-8.078 65.662l-.62 2.253C519.905 498.63 510.715 517.63 499 534l-2.133 3.012C485.638 552.407 473.02 566.24 458 578l-2.91 2.285c-7.068 5.429-14.35 10.302-22.09 14.715l-2.221 1.274c-48.633 27.547-106.03 33.649-159.767 18.906-29.79-8.633-57.032-23.323-80.012-44.18-1.045-.925-2.09-1.85-3.137-2.773C172.67 554.697 160.001 538.72 150 521l-1.179-2.072C135.453 495.192 126.633 469.216 124 442l-.332-3.422c-3.878-46.538 8.408-90.259 32.527-129.922 3.597-5.92 7.003-11.95 10.43-17.969a26314.485 26314.485 0 0 1 5.212-9.141 6262.29 6262.29 0 0 1 7.257-12.694c6.399-11.17 12.764-22.357 19.031-33.602 5.097-9.144 10.325-18.204 15.625-27.231 4.173-7.125 8.235-14.305 12.25-21.519a1222.711 1222.711 0 0 1 14-24.5c5.415-9.224 10.686-18.52 15.895-27.862 5.091-9.13 10.265-18.209 15.465-27.277 2.796-4.878 5.584-9.76 8.372-14.642l5.127-8.973 2.077-3.633 5.082-8.894a178464.677 178464.677 0 0 0 6.948-12.158c3.144-5.499 6.285-11 9.419-16.504 1.49-2.618 2.982-5.235 4.474-7.852l2.144-3.766a4676.2 4676.2 0 0 1 2.962-5.2l1.707-3C321 20 321 20 322 19Z" fill="#5cfaff"/>
</svg>
